HIERARCHY
ROOT hip
{
  OFFSET 0.00112043 5.09927 -9.65472
  CHANNELS 6 Xposition Yposition Zposition Zrotation Xrotation Yrotation
  JOINT abdomen
  {
    OFFSET 0 -1.186 -1.5018
    CHANNELS 3 Zrotation Xrotation Yrotation
    JOINT abdomen2
    {
      OFFSET 0 9.964 0.2134
      CHANNELS 3 Zrotation Xrotation Yrotation
      JOINT chest
      {
        OFFSET 0 13.134 -3.2573
        CHANNELS 3 Zrotation Xrotation Yrotation
        JOINT neck
        {
          OFFSET 0 20.686 -1.6905
          CHANNELS 3 Zrotation Xrotation Yrotation
          JOINT head
          {
            OFFSET 0 7.238 -0.1237
            CHANNELS 3 Zrotation Xrotation Yrotation
            End Site
            {
              OFFSET 0 0 0
            }
          }
        }
        JOINT lCollar
        {
          OFFSET 1.7069 20.075 5.0056
          CHANNELS 3 Zrotation Xrotation Yrotation
          JOINT lShldr
          {
            OFFSET 13.6458 -0.047 -4.849
            CHANNELS 3 Zrotation Xrotation Yrotation
            JOINT lForeArm
            {
              OFFSET 28.3255 -0.9759 2.2888
              CHANNELS 3 Zrotation Xrotation Yrotation
              JOINT lHand
              {
                OFFSET 22.1583 -0.53 10.8316
                CHANNELS 3 Zrotation Xrotation Yrotation
                JOINT lThumb1
                {
                  OFFSET 0.786 0.112 2.5817
                  CHANNELS 3 Zrotation Xrotation Yrotation
                  JOINT lThumb2
                  {
                    OFFSET 0.3601 -0.878 4.2331
                    CHANNELS 3 Zrotation Xrotation Yrotation
                    JOINT lThumb2_End
                    {
                      OFFSET 1.8127 -1.216 2.2227
                      CHANNELS 3 Zrotation Xrotation Yrotation
                      End Site
                      {
                        OFFSET 0.0181 -0.0122 0.0222
                      }
                    }
                  }
                }
                JOINT lCarpal1
                {
                  OFFSET 0.9571 1.114 1.7695
                  CHANNELS 3 Zrotation Xrotation Yrotation
                  JOINT lIndex1
                  {
                    OFFSET 4.1246 0.487 4.1451
                    CHANNELS 3 Zrotation Xrotation Yrotation
                    JOINT lIndex2
                    {
                      OFFSET 3.4052 -1.454 2.7682
                      CHANNELS 3 Zrotation Xrotation Yrotation
                      JOINT lIndex2_End
                      {
                        OFFSET 1.4531 -1.795 1.2713
                        CHANNELS 3 Zrotation Xrotation Yrotation
                        End Site
                        {
                          OFFSET 0.0145 -0.0179 0.0127
                        }
                      }
                    }
                  }
                  JOINT lMid1
                  {
                    OFFSET 5.6954 0.21 2.1184
                    CHANNELS 3 Zrotation Xrotation Yrotation
                    JOINT lMid2
                    {
                      OFFSET 3.9766 -1.54 2.3863
                      CHANNELS 3 Zrotation Xrotation Yrotation
                      JOINT lMid2_End
                      {
                        OFFSET 1.4042 -1.926 1.125
                        CHANNELS 3 Zrotation Xrotation Yrotation
                        End Site
                        {
                          OFFSET 0.014 -0.0193 0.0113
                        }
                      }
                    }
                  }
                }
                JOINT lCarpal2
                {
                  OFFSET 2.0956 0.66 -0.3894
                  CHANNELS 3 Zrotation Xrotation Yrotation
                  JOINT lRing1
                  {
                    OFFSET 5.0395 -0.09 2.4971
                    CHANNELS 3 Zrotation Xrotation Yrotation
                    JOINT lRing2
                    {
                      OFFSET 3.7921 -1.552 1.4806
                      CHANNELS 3 Zrotation Xrotation Yrotation
                      JOINT lRing2_End
                      {
                        OFFSET 1.4655 -1.808 0.9609
                        CHANNELS 3 Zrotation Xrotation Yrotation
                        End Site
                        {
                          OFFSET 0.0147 -0.0181 0.0096
                        }
                      }
                    }
                  }
                  JOINT lPinky1
                  {
                    OFFSET 4.9141 -1.269 0.3591
                    CHANNELS 3 Zrotation Xrotation Yrotation
                    JOINT lPinky2
                    {
                      OFFSET 3.1477 -1.685 0.8462
                      CHANNELS 3 Zrotation Xrotation Yrotation
                      JOINT lPinky2_End
                      {
                        OFFSET 0.8055 -1.585 0.7955
                        CHANNELS 3 Zrotation Xrotation Yrotation
                        End Site
                        {
                          OFFSET 0.0081 -0.0158 0.008
                        }
                      }
                    }
                  }
                }
              }
            }
          }
        }
        JOINT rCollar
        {
          OFFSET -1.7069 20.075 5.0056
          CHANNELS 3 Zrotation Xrotation Yrotation
          JOINT rShldr
          {
            OFFSET -13.6458 -0.047 -4.849
            CHANNELS 3 Zrotation Xrotation Yrotation
            JOINT rForeArm
            {
              OFFSET -28.3255 -0.9759 2.2888
              CHANNELS 3 Zrotation Xrotation Yrotation
              JOINT rHand
              {
                OFFSET -22.1583 -0.53 10.8316
                CHANNELS 3 Zrotation Xrotation Yrotation
                JOINT rThumb1
                {
                  OFFSET -0.786 0.112 2.5817
                  CHANNELS 3 Zrotation Xrotation Yrotation
                  JOINT rThumb2
                  {
                    OFFSET -0.3601 -0.878 4.2331
                    CHANNELS 3 Zrotation Xrotation Yrotation
                    JOINT rThumb2_End
                    {
                      OFFSET -1.8127 -1.216 2.2227
                      CHANNELS 3 Zrotation Xrotation Yrotation
                      End Site
                      {
                        OFFSET -0.0181 -0.0122 0.0222
                      }
                    }
                  }
                }
                JOINT rCarpal1
                {
                  OFFSET -0.9571 1.114 1.7695
                  CHANNELS 3 Zrotation Xrotation Yrotation
                  JOINT rIndex1
                  {
                    OFFSET -4.1246 0.487 4.1451
                    CHANNELS 3 Zrotation Xrotation Yrotation
                    JOINT rIndex2
                    {
                      OFFSET -3.4052 -1.454 2.7682
                      CHANNELS 3 Zrotation Xrotation Yrotation
                      JOINT rIndex2_End
                      {
                        OFFSET -1.4531 -1.795 1.2713
                        CHANNELS 3 Zrotation Xrotation Yrotation
                        End Site
                        {
                          OFFSET -0.0145 -0.018 0.0127
                        }
                      }
                    }
                  }
                  JOINT rMid1
                  {
                    OFFSET -5.6954 0.21 2.1184
                    CHANNELS 3 Zrotation Xrotation Yrotation
                    JOINT rMid2
                    {
                      OFFSET -3.9766 -1.54 2.3863
                      CHANNELS 3 Zrotation Xrotation Yrotation
                      JOINT rMid2_End
                      {
                        OFFSET -1.4042 -1.926 1.125
                        CHANNELS 3 Zrotation Xrotation Yrotation
                        End Site
                        {
                          OFFSET -0.014 -0.0193 0.0113
                        }
                      }
                    }
                  }
                }
                JOINT rCarpal2
                {
                  OFFSET -2.0956 0.66 -0.3894
                  CHANNELS 3 Zrotation Xrotation Yrotation
                  JOINT rRing1
                  {
                    OFFSET -5.0395 -0.09 2.4971
                    CHANNELS 3 Zrotation Xrotation Yrotation
                    JOINT rRing2
                    {
                      OFFSET -3.7921 -1.552 1.4806
                      CHANNELS 3 Zrotation Xrotation Yrotation
                      JOINT rRing2_End
                      {
                        OFFSET -1.4655 -1.808 0.9609
                        CHANNELS 3 Zrotation Xrotation Yrotation
                        End Site
                        {
                          OFFSET -0.0147 -0.0181 0.0096
                        }
                      }
                    }
                  }
                  JOINT rPinky1
                  {
                    OFFSET -4.9141 -1.269 0.3592
                    CHANNELS 3 Zrotation Xrotation Yrotation
                    JOINT rPinky2
                    {
                      OFFSET -3.1477 -1.685 0.8462
                      CHANNELS 3 Zrotation Xrotation Yrotation
                      JOINT rPinky2_End
                      {
                        OFFSET -0.8055 -1.585 0.7955
                        CHANNELS 3 Zrotation Xrotation Yrotation
                        End Site
                        {
                          OFFSET -0.0081 -0.0158 0.008
                        }
                      }
                    }
                  }
                }
              }
            }
          }
        }
      }
    }
  }
  JOINT lThigh
  {
    OFFSET 8.367 -8.2066 0.5982
    CHANNELS 3 Zrotation Xrotation Yrotation
    JOINT lShin
    {
      OFFSET 2.1923 -43.463 -0.4932
      CHANNELS 3 Zrotation Xrotation Yrotation
      JOINT lFoot
      {
        OFFSET 0.7333 -45.8593 -2.6451
        CHANNELS 3 Zrotation Xrotation Yrotation
        End Site
        {
          OFFSET 2.6618 -4.2699 12.3931
        }
      }
    }
  }
  JOINT rThigh
  {
    OFFSET -8.367 -8.2066 0.5982
    CHANNELS 3 Zrotation Xrotation Yrotation
    JOINT rShin
    {
      OFFSET -2.1923 -43.463 -0.4931
      CHANNELS 3 Zrotation Xrotation Yrotation
      JOINT rFoot
      {
        OFFSET -0.7333 -45.8593 -2.6451
        CHANNELS 3 Zrotation Xrotation Yrotation
        End Site
        {
          OFFSET -2.6618 -4.2699 12.3931
        }
      }
    }
  }
}
MOTION
Frames:	4
Frame Time:	0.0333333
0 91.7903 2.51682 0 0 -0 0 0 -0 0 0 -0 0 0 -0 -1.59103e-010 1.37475e-022 0.00599323 8.76151e-027 3.20403e-030 -0 -0 0 0.00599323 1.66051 0.0835086 5.75766 -0.0175112 0.895433 15.7816 -4.96962e-017 5.96354e-016 9.54166e-015 -9.93923e-017 3.97569e-016 6.36111e-015 -3.31043e-032 5.96354e-016 3.18055e-015 -4.96962e-017 1.98785e-016 -0 -9.93923e-017 1.98785e-016 6.36111e-015 -4.96962e-017 1.98785e-016 9.54166e-015 -9.93923e-017 5.96354e-016 -0 -4.96962e-017 1.98785e-016 3.18055e-015 -4.96962e-017 1.98785e-016 9.54166e-015 -9.93923e-017 5.96354e-016 -0 -4.96962e-017 1.98785e-016 3.18055e-015 -9.93923e-017 1.98785e-016 6.36111e-015 -4.96962e-017 1.98785e-016 9.54166e-015 -9.93923e-017 5.96354e-016 -0 -4.96962e-017 1.98785e-016 3.18055e-015 -4.96962e-017 1.98785e-016 9.54166e-015 -9.93923e-017 5.96354e-016 -0 -4.96962e-017 1.98785e-016 3.18055e-015 -0 0 0.00599323 -1.4496 0.0636048 -5.0245 -1.74811 1.20616 -16.8394 -1.2921e-015 3.97569e-016 -9.54166e-015 -4.96962e-016 0 -9.54166e-015 -2.98177e-016 5.96354e-016 -9.54166e-015 -1.98785e-016 3.97569e-016 -3.18055e-015 -1.98785e-016 0 -6.36111e-015 -8.94531e-016 5.96354e-016 -6.36111e-015 -3.97569e-016 7.95139e-016 -1.27222e-014 4.41391e-032 1.98785e-016 -1.27222e-014 -8.94531e-016 5.96354e-016 -6.36111e-015 -3.97569e-016 7.95139e-016 -1.27222e-014 4.41391e-032 1.98785e-016 -1.27222e-014 -1.98785e-016 0 -6.36111e-015 -8.94531e-016 5.96354e-016 -6.36111e-015 -3.97569e-016 7.95139e-016 -1.27222e-014 4.41391e-032 1.98785e-016 -1.27222e-014 -8.94531e-016 5.96354e-016 -6.36111e-015 -3.97569e-016 7.95139e-016 -1.27222e-014 4.41391e-032 1.98785e-016 -1.27222e-014 -4.66111 -0.998717 0.12318 0.00986924 1.54847 0.176523 4.65186 -0.572283 -0.254274 4.66111 -0.998765 -0.123176 -0.00986867 1.54869 -0.176537 -4.65186 -0.572453 0.25427 
42.3104 41.1311 56.4678 0 63.9974 -0 -0.411854 10.7977 -0.0149916 -0.843936 21.5953 0.0521533 -0.843937 21.5953 0.0521533 1.91601e-006 -50.002 1.37377e-006 -8.86092e-008 -54.0014 2.27395e-007 -13.9407 -3.84509 4.06596 36.3803 -29.6972 -63.4813 2.85211 -10.2208 1.77938 58.2591 -18.0605 11.2453 3.18055e-015 0 -0 -8.82781e-032 -3.18055e-015 -1.59028e-015 6.36111e-015 -5.1684e-015 3.18055e-015 3.18055e-015 1.59028e-015 -0 1.76556e-031 -1.59028e-015 6.36111e-015 -0 -2.78299e-015 -0 3.18055e-015 -3.18055e-015 -0 1.76556e-031 -1.59028e-015 6.36111e-015 -0 -2.78299e-015 -0 3.18055e-015 -3.18055e-015 -0 3.18055e-015 1.59028e-015 -0 1.76556e-031 -1.59028e-015 6.36111e-015 -0 -2.78299e-015 -0 3.18055e-015 -3.18055e-015 -0 1.76556e-031 -1.59028e-015 6.36111e-015 -0 -2.78299e-015 -0 3.18055e-015 -3.18055e-015 -0 13.9371 -3.84538 -4.06956 -36.2812 -29.5034 64.2483 -4.81884 -10.2561 -3.16774 -58.2412 -18.1135 -11.786 3.18055e-015 3.97569e-016 2.38542e-015 6.36111e-015 9.93923e-016 3.18055e-015 9.54166e-015 9.93923e-016 3.97569e-015 -0 -1.59028e-015 -0 6.36111e-015 -1.13307e-014 4.77083e-015 6.36111e-015 1.19271e-015 7.95139e-016 9.54166e-015 2.78299e-015 2.38542e-015 6.36111e-015 -1.13307e-014 4.77083e-015 6.36111e-015 1.19271e-015 7.95139e-016 9.54166e-015 2.78299e-015 2.38542e-015 -0 -1.59028e-015 -0 6.36111e-015 -1.13307e-014 4.77083e-015 6.36111e-015 1.19271e-015 7.95139e-016 9.54166e-015 2.78299e-015 2.38542e-015 6.36111e-015 -1.13307e-014 4.77083e-015 6.36111e-015 1.19271e-015 7.95139e-016 9.54166e-015 2.78299e-015 2.38542e-015 14.4127 -70.3823 21.687 136.677 85.7102 -134.858 16.1599 59.3044 -6.94077 -14.4842 -70.3744 -21.855 -135.611 85.6546 133.827 -16.1795 59.313 6.92835 
42.3104 41.1359 56.376 0 64.4413 -0 -0.411089 10.5026 -0.0193469 -0.840286 21.0051 0.0405436 -0.840286 21.0051 0.0405438 1.85419e-006 -50.0014 5.58978e-007 -1.01791e-007 -54.0014 3.82653e-007 -14.2486 -3.06658 4.54128 36.4277 -29.8325 -63.7088 2.85209 -10.2208 1.77938 58.0046 -17.9479 11.0366 -3.18055e-015 3.97569e-016 -1.59028e-015 -6.49536e-007 -5.3533e-007 -1.27746e-007 -1.32417e-031 2.38542e-015 3.18055e-015 -3.18055e-015 3.97569e-016 -1.59028e-015 -6.36111e-015 1.59028e-015 6.36111e-015 -6.49536e-007 -5.3533e-007 -1.27746e-007 -3.18055e-015 1.98785e-015 3.18055e-015 -6.36111e-015 1.59028e-015 6.36111e-015 -6.49536e-007 -5.3533e-007 -1.27746e-007 -3.18055e-015 1.98785e-015 3.18055e-015 -3.18055e-015 3.97569e-016 -1.59028e-015 -6.36111e-015 1.59028e-015 6.36111e-015 -6.49536e-007 -5.3533e-007 -1.27746e-007 -3.18055e-015 1.98785e-015 3.18055e-015 -6.36111e-015 1.59028e-015 6.36111e-015 -6.49536e-007 -5.3533e-007 -1.27746e-007 -3.18055e-015 1.98785e-015 3.18055e-015 14.1914 -3.05483 -4.45601 -36.3208 -29.6108 64.4364 -4.81883 -10.2561 -3.16772 -57.9926 -18.0262 -11.5703 -6.33368e-007 5.56903e-007 -1.23494e-007 -3.18055e-015 -5.96354e-016 -0 -9.3598e-007 7.8148e-007 5.64277e-006 -6.36111e-015 1.98785e-016 2.38542e-015 -6.33368e-007 5.56903e-007 -1.23494e-007 -6.36111e-015 -1.19271e-015 -0 -9.3598e-007 7.8148e-007 5.64277e-006 -6.33368e-007 5.56903e-007 -1.23494e-007 -6.36111e-015 -1.19271e-015 -0 -9.3598e-007 7.8148e-007 5.64277e-006 -6.36111e-015 1.98785e-016 2.38542e-015 -6.33368e-007 5.56903e-007 -1.23494e-007 -6.36111e-015 -1.19271e-015 -0 -9.3598e-007 7.8148e-007 5.64277e-006 -6.33368e-007 5.56903e-007 -1.23494e-007 -6.36111e-015 -1.19271e-015 -0 -9.3598e-007 7.8148e-007 5.64277e-006 14.81 -70.9894 22.0895 136.664 85.7112 -134.844 16.1603 59.3035 -6.94057 -14.887 -70.9793 -22.264 -135.59 85.6561 133.804 -16.1799 59.3122 6.92816 
42.3104 41.1406 56.2837 0 64.8852 -0 -0.410187 10.2057 -0.0236552 -0.836457 20.4113 0.0290515 -0.836457 20.4113 0.0290509 -6.79672e-006 -50.0014 -6.00999e-006 8.16763e-007 -54.0014 3.79537e-007 -14.5632 -2.28976 5.02104 36.4746 -29.9679 -63.9365 2.8521 -10.2208 1.77938 57.7507 -17.8344 10.8286 1.71987e-006 -7.63879e-007 1.53391e-009 -1.07035e-006 1.29905e-006 1.27252e-007 1.71987e-006 -7.63879e-007 1.53391e-009 6.36111e-015 0 3.18055e-015 1.71987e-006 -7.63879e-007 1.53391e-009 -1.07035e-006 1.29905e-006 1.27252e-007 1.71987e-006 -7.63879e-007 1.53391e-009 1.71987e-006 -7.63879e-007 1.53391e-009 -1.07035e-006 1.29905e-006 1.27252e-007 1.71987e-006 -7.63879e-007 1.53391e-009 6.36111e-015 0 3.18055e-015 1.71987e-006 -7.63879e-007 1.53391e-009 -1.07035e-006 1.29905e-006 1.27252e-007 1.71987e-006 -7.63879e-007 1.53391e-009 1.71987e-006 -7.63879e-007 1.53391e-009 -1.07035e-006 1.29905e-006 1.27252e-007 1.71987e-006 -7.63879e-007 1.53391e-009 14.4511 -2.2652 -4.84613 -36.36 -29.7183 64.6246 -4.81884 -10.2561 -3.16775 -57.7445 -17.9381 -11.355 3.18055e-015 -3.37934e-015 2.38542e-015 -2.75869e-032 -1.98785e-015 -7.95139e-016 3.18055e-015 -2.18663e-015 -7.95139e-016 -8.27607e-033 1.98785e-016 2.38542e-015 9.54166e-015 -1.25234e-014 7.95139e-016 -3.18055e-015 -5.96354e-015 -7.95139e-016 3.18055e-015 -4.37326e-015 -1.59028e-015 9.54166e-015 -1.25234e-014 7.95139e-016 -3.18055e-015 -5.96354e-015 -7.95139e-016 3.18055e-015 -4.37326e-015 -1.59028e-015 -8.27607e-033 1.98785e-016 2.38542e-015 9.54166e-015 -1.25234e-014 7.95139e-016 -3.18055e-015 -5.96354e-015 -7.95139e-016 3.18055e-015 -4.37326e-015 -1.59028e-015 9.54166e-015 -1.25234e-014 7.95139e-016 -3.18055e-015 -5.96354e-015 -7.95139e-016 3.18055e-015 -4.37326e-015 -1.59028e-015 15.2394 -71.5974 22.5236 136.67 85.7107 -134.849 16.1607 59.3027 -6.94042 -15.3317 -71.5876 -22.7138 -135.622 85.6537 133.838 -16.1803 59.3114 6.92799 
